<svg width="44" height="64" viewBox="0 0 44 64" fill="none" xmlns="http://www.w3.org/2000/svg" aria-hidden="true"><path d="M26 1.09384C26 0.489727 26.4897 0 27.0938 0C27.674 0 28.2305 0.230486 28.6408 0.640755L43.3592 15.3592C43.7695 15.7695 44 16.326 44 16.9062C44 17.5103 43.5103 18 42.9062 18H28C26.8954 18 26 17.1046 26 16L26 1.09384Z" fill="#D4D2D0"></path><path d="M0 2C0 0.895431 0.895431 0 2 0H27C28.1046 0 29 0.895431 29 2V13C29 14.1046 29.8954 15 31 15H42C43.1046 15 44 15.8954 44 17V62C44 63.1046 43.1046 64 42 64H2C0.895431 64 0 63.1046 0 62V2Z" fill="#E4E2E0"></path><path fill-rule="evenodd" clip-rule="evenodd" d="M19.5344 48.6075V37.3919C19.8783 37.4207 20.2071 37.4359 20.5511 37.4359C22.1909 37.4359 23.734 37.0248 25.0444 36.2932V48.6075C25.0444 49.6588 24.7811 50.4357 24.2738 50.9549C23.7671 51.4725 23.0931 51.7306 22.2729 51.7306C21.4691 51.7306 20.8295 51.4725 20.3043 50.9393C19.797 50.4218 19.5344 49.643 19.5344 48.6075Z" fill="#2557a7"></path><path fill-rule="evenodd" clip-rule="evenodd" d="M24.0108 34.2057C21.9616 35.1809 19.4514 34.4204 18.4181 32.5148C17.3684 30.6093 18.1892 28.2781 20.2385 27.3181C22.2891 26.3424 24.7993 27.1034 25.8312 29.0096C26.8809 30.9145 26.0614 33.2458 24.0108 34.2057Z" fill="#2557a7"></path><path fill-rule="evenodd" clip-rule="evenodd" d="M19.5662 21.7251C22.9775 20.5813 26.8643 20.6423 29.7826 22.9892C30.325 23.4614 30.9467 24.0556 31.1936 24.7569C31.4892 25.6408 30.1616 24.6644 29.979 24.5442C29.0285 23.9644 28.0767 23.4772 27.0123 23.1409C21.2734 21.4961 15.8435 24.468 12.4674 29.0855C11.0578 31.1277 10.1378 33.2757 9.38431 35.6376C9.30294 35.8977 9.23673 36.2337 9.08792 36.4598C8.94046 36.7212 9.02306 35.7617 9.02306 35.7296C9.13686 34.7551 9.35127 33.8101 9.61376 32.8652C11.1708 27.8353 14.6138 23.6445 19.5662 21.7251Z" fill="#2557a7"></path></svg>